<?xml version="1.0" encoding="utf-8"?>
<!-- Generator: Adobe Illustrator 15.0.0, SVG Export Plug-In . SVG Version: 6.00 Build 0)  -->
<!DOCTYPE svg PUBLIC "-//W3C//DTD SVG 1.1//EN" "http://www.w3.org/Graphics/SVG/1.1/DTD/svg11.dtd">
<svg version="1.1" id="Capa_1" xmlns="http://www.w3.org/2000/svg" xmlns:xlink="http://www.w3.org/1999/xlink" x="0px" y="0px"
	 width="612px" height="792px" viewBox="0 0 612 792" enable-background="new 0 0 612 792" xml:space="preserve">
<g>
	<g id="XMLID_1_">
		<g>
			<path fill="#EDE275" d="M205.74,510.88c7.85,68.811,5.34,136.29-12.56,145.01c-5.58,2.71-11.02,4.03-16.62,4.03
				c-41.45,0-87.59-74.74-118.01-144.02L205.74,510.88z"/>
			<path fill="#EDE275" d="M36.41,486.71l-0.27,13.88l-0.03,1.01v-1.06v-13.83c-1.78,0-3.08-0.56-4.09-1.75
				c-1.82-2.13-2.49-5.91-1.8-10.11l1.4-8.46l2.46-14.909L56.95,312.5c0.65-3.98,2.3-7.04,4.31-8.39l179.51,145.28
				c4.18,3.37,8.99,5.95,14.12,7.87l-0.8,3.63c-2.35,10.601-11.94,18.78-18.95,19.021l-3.26,0.109l-15.13,0.521l-95.58,3.28
				l-74.78,2.55L36.41,486.71z"/>
			<path fill="#EDE275" d="M580.52,312.17c3.011,11.68,1.551,21.83-4.439,31c-1.23,1.89-7.2,8.04-32.14,8.04
				c-0.011,0-0.011,0-0.011,0c-34.51,0-81.89-11.77-113.56-20.95l7.7-154.75C493.1,209.9,568.59,265.84,580.52,312.17z"/>
			<path fill="#EDE275" d="M408.691,134.22c0.34,0.36,1.369,1.45,1.239,4.12l-0.16,3.16l-9.699,195.16l-0.61,12.22
				c-0.05,1.01-0.32,2.04-0.69,3.1c-2.119,5.98-9.109,12.25-17.729,13.3l-9.33,1.15c-0.9-5.97-2.86-11.8-5.93-17.17L256.23,158.08
				L388.8,134.2l10.11-1.81c1.109-0.2,2.21-0.3,3.25-0.3C405.02,132.09,407.39,132.87,408.691,134.22z"/>
			<path fill="#EDE275" d="M341.87,370.08c0.939,5.15,0.03,10.8-2.54,15.39c-1.25,2.25-2.86,4.25-4.83,5.79l-13.64,10.7L293,423.809
				l-3.23,2.53c-3.51,2.75-8.52,4.16-13.64,4.37c-5.25,0.21-10.56-0.92-14.6-3.37c-0.64-0.399-1.33-0.76-1.91-1.229l-105.69-85.53
				l-41.28-33.4l-35.37-28.61c-1.2-0.98-2.13-2.08-2.89-3.22c-1.15-1.72-1.85-3.57-1.89-5.48c-0.08-3.16,1.47-6.33,4.37-8.91
				l125.29-111.93c1.51-1.35,3.08-2.14,4.65-2.65c0.92-0.3,1.85-0.62,2.76-0.62c3.28,0,6.29,2.08,8.43,5.82l1.6,2.79l8.72,15.23
				L339.8,364.13C340.84,365.95,341.481,367.97,341.87,370.08z"/>
			<path fill="#010002" d="M609.5,304.67c5.15,20.02,2.33,38.48-8.37,54.86c-9.5,14.53-28.22,21.6-57.2,21.6c-0.01,0-0.01,0-0.02,0
				c-36.29,0-83.33-11.17-116.561-20.57c-5.56,17.62-22.5,31.94-42.67,34.42l-17.85,2.19c-3.26,6.74-7.8,12.88-13.85,17.63
				l-44.73,35.08c-6.59,5.16-14.64,8.58-23.29,10.11l-1.62,7.359c-5.13,23.08-25.85,41.73-47.18,42.46l-0.25,0.011
				c7.03,60.56,10.59,153.38-29.62,172.97c-9.62,4.68-19.62,7.06-29.73,7.06c-68.58,0-124.2-110.159-150.98-174.93
				c-6.32-1.92-12-5.4-16.4-10.59c-7.54-8.88-10.65-21.4-8.53-34.35L3.29,454l-1.14-3.4l1.7,0.051L27.39,307.63
				c1.98-12.03,8.13-21.82,16.55-27.81c-0.81-3.01-1.32-6.1-1.39-9.23c-0.29-11.93,4.95-23.58,14.35-31.98l125.32-111.92
				c7.84-7.01,17.56-10.87,27.34-10.87c11.69,0,22.52,5.47,30.15,14.81l153.89-27.71c14.29-2.57,27.99,1.43,36.78,10.66
				c6.59,6.92,9.95,16.24,9.45,26.23l-0.08,1.69C491,172.15,592.87,240.07,609.5,304.67z M576.08,343.17
				c5.99-9.17,7.45-19.32,4.439-31c-11.93-46.33-87.42-102.27-142.449-136.66l-7.7,154.75c31.67,9.18,79.05,20.95,113.56,20.95
				c0,0,0,0,0.011,0C568.88,351.21,574.85,345.06,576.08,343.17z M409.93,138.34c0.13-2.67-0.899-3.76-1.239-4.12
				c-1.301-1.35-3.671-2.13-6.53-2.13c-1.04,0-2.141,0.1-3.25,0.3l-10.11,1.81l-132.57,23.88l109.55,191.18
				c3.069,5.37,5.029,11.2,5.93,17.17l9.33-1.15c8.62-1.05,15.61-7.32,17.729-13.3c0.37-1.06,0.641-2.09,0.69-3.1l0.61-12.22
				l9.699-195.16L409.93,138.34z M339.33,385.47c2.57-4.59,3.479-10.24,2.54-15.39c-0.39-2.11-1.03-4.13-2.07-5.95L228.32,169.6
				l-8.72-15.23l-1.6-2.79c-2.14-3.74-5.15-5.82-8.43-5.82c-0.91,0-1.84,0.32-2.76,0.62c-1.57,0.51-3.14,1.3-4.65,2.65L76.87,260.96
				c-2.9,2.58-4.45,5.75-4.37,8.91c0.04,1.91,0.74,3.76,1.89,5.48c0.76,1.14,1.69,2.24,2.89,3.22l35.37,28.61l41.28,33.4
				l105.69,85.53c0.58,0.47,1.27,0.83,1.91,1.229c4.04,2.45,9.35,3.58,14.6,3.37c5.12-0.21,10.13-1.62,13.64-4.37l3.23-2.53
				l27.86-21.85l13.64-10.7C336.47,389.72,338.08,387.72,339.33,385.47z M254.09,460.889l0.8-3.63c-5.13-1.92-9.94-4.5-14.12-7.87
				L61.26,304.11c-2.01,1.35-3.66,4.41-4.31,8.39L34.08,451.48l-2.46,14.909l-1.4,8.46c-0.69,4.2-0.02,7.98,1.8,10.11
				c1.01,1.19,2.31,1.75,4.09,1.75v13.83v1.06l0.03-1.01l0.27-13.88l9.98-0.34l74.78-2.55l95.58-3.28l15.13-0.521l3.26-0.109
				C242.15,479.67,251.74,471.49,254.09,460.889z M193.18,655.889c17.9-8.72,20.41-76.199,12.56-145.01L58.55,515.9
				c30.42,69.279,76.56,144.02,118.01,144.02C182.16,659.92,187.6,658.599,193.18,655.889z"/>
		</g>
		<g>
		</g>
	</g>
</g>
</svg>
